<svg viewBox="0 0 100 100" xml:space="preserve" xmlns="http://www.w3.org/2000/svg"><circle cx="73.375" cy="50" r="1.959"/><circle cx="72.029" cy="57.704" r="1.959"/><circle cx="68.237" cy="64.579" r="1.959"/><circle cx="62.324" cy="69.759" r="1.959"/><circle cx="55.013" cy="72.699" r="1.959"/><circle transform="rotate(-4.554 27.057 51.864)" cx="27.045" cy="51.843" r="1.959"/><circle transform="rotate(-4.554 29.012 59.44)" cx="28.998" cy="59.416" r="1.959"/><circle transform="rotate(-4.554 33.34 65.996)" cx="33.325" cy="65.967" r="1.959"/><circle transform="rotate(-4.554 39.649 70.691)" cx="39.63" cy="70.661" r="1.959"/><circle transform="rotate(-4.554 47.174 73.042)" cx="47.152" cy="73.012" r="1.959"/><circle transform="rotate(-4.974 27.696 44.029)" cx="27.71" cy="44.049" r="1.959"/><circle transform="rotate(-4.974 30.877 36.854)" cx="30.892" cy="36.872" r="1.959"/><circle transform="rotate(-4.974 36.316 31.185)" cx="36.334" cy="31.199" r="1.959"/><circle transform="rotate(-4.974 43.341 27.624)" cx="43.363" cy="27.636" r="1.959"/><circle transform="matrix(1 -.0098 .0098 1 -.489 .726)" cx="73.489" cy="50" r="1.959"/><circle transform="translate(-.11 .187)" cx="72.131" cy="42.296" r="1.959"/><circle transform="translate(-.092 .177)" cx="68.321" cy="35.432" r="1.959"/><circle transform="translate(-.078 .162)" cx="62.395" cy="30.267" r="1.959"/><circle transform="translate(-.07 .143)" cx="55.076" cy="27.346" r="1.959"/></svg>
